<svg width="280" height="280" xmlns="http://www.w3.org/2000/svg" viewBox="0 0 480 480" transform="translate(40,100)">
<g transform="translate(0, 26)">
<path d="M-1,0 Q0,120 8,40 T15,50 T30,35 T40,30 T50,30 T60,40 T70,50 T80,40 T260,60 T160,10 T100,40 T270,80 T320,40" fill="none" stroke="blue" stroke-width="2"/></g> 
<g transform="translate(3, 23)">
<path d="M-1,0 Q0,120 8,40 T15,50 T30,35 T40,30 T50,30 T60,40 T70,50 T80,40 T260,60 T160,10 T100,40 T270,80 T320,40" fill="none" stroke="yellow" stroke-width="2"/></g>
<g transform="translate(6, 20)">
<path d="M-1,0 Q0,120 8,40 T15,50 T30,35 T40,30 T50,30 T60,40 T70,50 T80,40 T260,60 T160,10 T100,40 T270,80 T320,40" fill="none" stroke="green" stroke-width="2"/></g></svg>